<svg width="40" height="64" viewBox="0 0 40 64" fill="none" xmlns="http://www.w3.org/2000/svg">
<path d="M11.5535 14.5728L6.60734 17.5011L1.66113 14.5728L6.64428 11.6445L11.5535 14.5728Z" fill="white"/>
<path d="M11.3223 27.6369L6.37614 30.5652L1.42993 27.6369L6.41176 24.71L11.3223 27.6369Z" fill="white"/>
<path d="M12.0507 20.7062L7.19558 23.4869L7.10059 18.3802L11.9808 15.4321L12.0507 20.7062Z" fill="white"/>
<path d="M12.0507 59.219L7.19558 61.9997L7.10059 31.4017L11.9808 28.4536L12.0507 59.219Z" fill="white"/>
<path d="M6.15861 23.5929L1.46835 20.8162L1.2124 15.5566L6.15861 18.3571V23.5929Z" fill="white"/>
<path d="M5.9462 62.0002L1.25595 59.2235L1 28.7256L5.9462 31.5247V62.0002Z" fill="white"/>
<path d="M38.0218 26.0299C38.0112 24.2204 38.0798 22.3965 37.9453 20.5963C37.8186 18.8963 37.6194 17.9145 36.8727 16.3871C36.2433 15.0995 35.6694 14.3418 34.5744 13.4021C34.0704 12.9699 33.5519 12.6206 32.9898 12.2688C30.4264 10.6649 27.6861 9.25614 25.0778 7.73796C24.2716 7.2688 23.4629 6.79174 22.6528 6.31335L15.089 2L10.1785 4.75169L10.0254 4.82681L10.222 4.9441L15.122 7.73928C16.9585 8.92272 18.9019 9.93483 20.7899 11.03C23.1278 12.3861 27.1386 14.3286 28.9856 16.0813L29.2152 16.3106C29.4435 16.5465 29.7047 16.8167 29.9039 17.0763C30.5873 17.9632 31.0926 19.0505 31.3591 20.1377C31.9357 22.4874 31.7035 26.2064 31.6652 28.7091C31.6151 31.9352 31.4383 34.4536 29.9039 37.3569C27.5792 41.7559 22.8085 44.2796 18.4151 46.234C18.1473 46.3526 17.8465 46.429 17.572 46.5397H17.419C24.8574 43.3162 30.1902 39.3389 30.5161 30.6213C30.5623 29.3838 30.5913 28.1305 30.5926 26.872C30.5966 24.4642 30.8697 21.7758 29.9804 19.5249C29.7443 18.9266 29.5015 18.5128 29.1374 17.9949C28.5226 17.1185 27.9671 16.5558 27.07 15.9285C26.6385 15.6267 26.2348 15.4066 25.8074 15.143C25.3852 14.8834 24.9353 14.6449 24.5038 14.3866C23.7677 13.9477 22.9774 13.5273 22.2465 13.0964C21.7148 12.784 21.1659 12.4836 20.6382 12.1778C19.4627 11.4978 18.2977 10.7862 17.1156 10.1114C16.758 9.90716 15.2236 9.02551 14.9716 8.88713L9.45679 5.59644V10.2287L22.3784 17.0183C22.5446 17.129 22.7069 17.249 22.86 17.3821C23.7083 18.1214 24.3798 19.0531 24.6978 20.1377C25.1081 21.5386 24.9933 22.8591 25.0039 24.2705C25.0158 25.8256 25.0065 27.3846 25.0039 28.9384C25.0012 30.3142 25.0171 31.6953 25.0039 33.0712C24.992 34.2335 25.0764 35.4407 24.9274 36.5912C24.74 38.0448 23.9774 39.8502 23.013 40.9533C21.6013 42.5677 19.2502 43.788 17.3966 44.87C15.9836 45.695 14.5389 46.4672 13.114 47.2738V58.6996C17.3108 56.3195 21.5129 53.9092 25.6358 51.57C27.3879 50.5763 29.2957 49.6485 31.0187 48.4994C37.5613 44.7527 37.8753 38.8408 37.8819 37.8827C37.9281 37.4003 37.9228 36.8877 37.9479 36.4383C38.0693 34.252 38.0139 32.0512 38.0244 29.8569C38.0297 28.5825 38.0324 27.3042 38.0244 26.0299H38.0218Z" fill="white"/>
</svg>
