<svg width="219" height="64" viewBox="0 0 219 64" fill="none" xmlns="http://www.w3.org/2000/svg">
<g clip-path="url(#clip0_4048_286)">
<path d="M55.4248 40.5695H49.6338V16.6328H55.4248V40.5681V40.5695Z" fill="#037FE5"/>
<path d="M79.9862 28.0038L73.7561 34.1074H72.757L66.4467 27.9644V40.571H60.6951V16.6328H62.2529L73.1552 26.8848L84.218 16.6328H85.735V40.5682H79.9834V28.0023L79.9862 28.0038Z" fill="#037FE5"/>
<path d="M89.5685 28.6009C89.5685 21.7395 94.4011 16.1138 102.348 16.1138C110.295 16.1138 115.208 21.7381 115.208 28.6009C115.208 35.4636 110.375 41.088 102.348 41.088C94.3209 41.088 89.5685 35.4636 89.5685 28.6009ZM109.219 28.6009C109.219 24.4526 106.224 21.6987 102.35 21.6987C98.4752 21.6987 95.5607 24.4511 95.5607 28.6009C95.5607 32.7506 98.5555 35.503 102.35 35.503C106.144 35.503 109.219 32.7506 109.219 28.6009Z" fill="#037FE5"/>
<path d="M131.182 40.5695H119.042V16.6328H130.982C136.854 16.6328 139.729 19.1069 139.729 23.1751C139.729 25.1304 138.81 26.9256 137.053 27.7634V28.4409C139.17 29.2394 140.408 31.154 140.408 33.427C140.408 37.8944 137.053 40.5681 131.182 40.5681V40.5695ZM130.863 21.6203H124.833V26.4476H130.823C132.701 26.4476 133.579 25.3301 133.579 24.0143C133.579 22.6985 132.701 21.6203 130.863 21.6203ZM124.833 30.3963V35.582H131.382C133.179 35.582 134.178 34.345 134.178 33.0292C134.178 31.7135 133.181 30.3963 131.343 30.3963H124.833Z" fill="#037FE5"/>
<path d="M154.424 40.5695H144.48V16.6328H154.424C162.411 16.6328 167.124 21.7398 167.124 28.6012C167.124 35.4625 162.411 40.5695 154.424 40.5695ZM150.271 21.6203V35.5834H153.984C158.137 35.5834 161.134 33.2302 161.134 28.6026C161.134 23.9749 158.139 21.6217 153.984 21.6217H150.271V21.6203Z" fill="black"/>
<path d="M169.559 28.6009C169.559 21.7395 174.392 16.1138 182.339 16.1138C190.286 16.1138 195.198 21.7381 195.198 28.6009C195.198 35.4636 190.366 41.088 182.339 41.088C174.311 41.088 169.559 35.4636 169.559 28.6009ZM189.208 28.6009C189.208 24.4526 186.213 21.6987 182.339 21.6987C178.464 21.6987 175.55 24.4511 175.55 28.6009C175.55 32.7506 178.545 35.503 182.339 35.503C186.133 35.503 189.208 32.7506 189.208 28.6009Z" fill="black"/>
<path d="M219 38.1753C219 38.1753 216.325 41.088 210.454 41.088C202.426 41.088 197.594 35.4636 197.594 28.6009C197.594 21.7381 202.426 16.1138 210.454 16.1138C216.364 16.1138 219 19.0264 219 19.0264L215.686 23.4545C215.686 23.4545 213.21 21.6594 210.534 21.6594C206.46 21.6594 203.585 24.4526 203.585 28.6009C203.585 32.7492 206.46 35.5423 210.534 35.5423C213.928 35.5423 215.686 33.7472 215.686 33.7472L219 38.1753Z" fill="black"/>
<path d="M50.2122 52.521H53.4968C55.4051 52.521 56.5675 53.4417 56.5675 55.0836C56.5675 56.2701 55.9483 57.0531 54.9885 57.4312V57.5071L56.8715 59.9179V60.0951H55.4811L53.6234 57.6969H51.4632V60.0951H50.2122V52.5224V52.521ZM53.4602 53.6315H51.4632V56.6103H53.5348C54.5832 56.6103 55.2784 56.1436 55.2784 55.1342C55.2784 54.1249 54.5705 53.6329 53.4588 53.6329L53.4602 53.6315Z" fill="black"/>
<path d="M65.8415 56.8759H62.0264V58.9831H66.5241V60.0937H60.7753V52.521H66.5241V53.6315H62.0264V55.8146H65.8415V56.8745V56.8759Z" fill="black"/>
<path d="M76.24 56.8759H73.7758V55.816H77.5417V56.4598C77.5417 58.7315 76.2653 60.2708 73.9658 60.2708C71.5017 60.2708 69.9987 58.5038 69.9987 56.3207C69.9987 54.1376 71.5396 52.3579 73.9912 52.3579C75.9501 52.3579 76.8212 53.3293 76.8212 53.3293L76.0754 54.288C76.0754 54.288 75.3042 53.5429 73.9785 53.5429C72.3488 53.5429 71.2877 54.7547 71.2877 56.3193C71.2877 57.8838 72.3108 59.0703 73.9532 59.0703C75.3436 59.0703 76.24 58.1622 76.24 56.9125V56.8745V56.8759Z" fill="black"/>
<path d="M82.7474 60.0937H81.4963V52.521H82.7474V60.0937Z" fill="black"/>
<path d="M87.4224 58.3772C87.4224 58.3772 88.3315 59.1096 89.6839 59.1096C90.8084 59.1096 91.2756 58.6682 91.2756 58.0624C91.2756 57.4565 90.8843 57.1908 89.4306 56.7747C87.649 56.2701 86.8032 55.7021 86.8032 54.5157C86.8032 53.1901 87.839 52.3579 89.6966 52.3579C91.6555 52.3579 92.4887 53.1156 92.4887 53.1156L91.8061 54.1376C91.8061 54.1376 91.0223 53.519 89.6966 53.519C88.7495 53.519 88.1683 53.8592 88.1683 54.4651C88.1683 54.9824 88.6102 55.2354 89.9879 55.6136C91.9089 56.1309 92.666 56.8 92.666 57.9738C92.666 59.2614 91.7569 60.2708 89.7093 60.2708C87.6616 60.2708 86.7399 59.3247 86.7399 59.3247L87.4224 58.3787V58.3772Z" fill="black"/>
<path d="M95.8112 52.521H102.167V53.6315H99.6137V60.0937H98.3626V53.6315H95.8098V52.521H95.8112Z" fill="black"/>
<path d="M105.855 52.521H109.14C111.048 52.521 112.21 53.4417 112.21 55.0836C112.21 56.2701 111.591 57.0531 110.631 57.4312V57.5071L112.514 59.9179V60.0951H111.124L109.266 57.6969H107.106V60.0951H105.855V52.5224V52.521ZM109.103 53.6315H107.106V56.6103H109.178C110.226 56.6103 110.921 56.1436 110.921 55.1342C110.921 54.1249 110.213 53.6329 109.102 53.6329L109.103 53.6315Z" fill="black"/>
<path d="M115.913 56.3207C115.913 54.1123 117.441 52.3579 119.88 52.3579C122.319 52.3579 123.86 54.1123 123.86 56.3207C123.86 58.5291 122.332 60.2708 119.88 60.2708C117.429 60.2708 115.913 58.5038 115.913 56.3207ZM122.572 56.3207C122.572 54.7561 121.499 53.557 119.882 53.557C118.265 53.557 117.203 54.7561 117.203 56.3207C117.203 57.8852 118.277 59.059 119.882 59.059C121.486 59.059 122.572 57.8726 122.572 56.3207Z" fill="black"/>
<path d="M133.969 60.0937H132.718V52.521H133.969V60.0937Z" fill="black"/>
<path d="M145.301 60.0937H144.974L139.73 55.0204V60.0937H138.479V52.521H138.807L144.05 57.5184V52.521H145.301V60.0937Z" fill="black"/>
<path d="M148.992 52.521H155.347V53.6315H152.794V60.0937H151.543V53.6315H148.99V52.521H148.992Z" fill="black"/>
<path d="M164.102 56.8759H160.286V58.9831H164.784V60.0937H159.035V52.521H164.784V53.6315H160.286V55.8146H164.102V56.8745V56.8759Z" fill="black"/>
<path d="M174.5 56.8759H172.036V55.816H175.8V56.4598C175.8 58.7315 174.524 60.2708 172.224 60.2708C169.76 60.2708 168.257 58.5038 168.257 56.3207C168.257 54.1376 169.798 52.3579 172.25 52.3579C174.209 52.3579 175.08 53.3293 175.08 53.3293L174.334 54.288C174.334 54.288 173.563 53.5429 172.237 53.5429C170.607 53.5429 169.546 54.7547 169.546 56.3193C169.546 57.8838 170.569 59.0703 172.212 59.0703C173.602 59.0703 174.499 58.1622 174.499 56.9125V56.8745L174.5 56.8759Z" fill="black"/>
<path d="M179.756 52.521H183.041C184.949 52.521 186.112 53.4417 186.112 55.0836C186.112 56.2701 185.492 57.0531 184.533 57.4312V57.5071L186.416 59.9179V60.0951H185.025L183.168 57.6969H181.007V60.0951H179.756V52.5224V52.521ZM183.004 53.6315H181.007V56.6103H183.079C184.127 56.6103 184.822 56.1436 184.822 55.1342C184.822 54.1249 184.115 53.6329 183.003 53.6329L183.004 53.6315Z" fill="black"/>
<path d="M193.086 52.521H193.327L197.167 60.0937H195.739L195.17 58.9452H191.241L190.685 60.0937H189.27L193.085 52.521H193.086ZM193.251 54.8306H193.175L191.81 57.7967L191.734 57.9232H194.678L194.602 57.7967L193.249 54.8306H193.251Z" fill="black"/>
<path d="M203.434 60.0937H200.604V52.521H203.434C205.885 52.521 207.464 54.0476 207.464 56.308C207.464 58.5684 205.885 60.0937 203.434 60.0937ZM201.855 53.6315V58.9831H203.345C204.962 58.9831 206.188 58.0244 206.188 56.308C206.188 54.5916 204.962 53.6329 203.345 53.6329H201.855V53.6315Z" fill="black"/>
<path d="M210.977 56.3207C210.977 54.1123 212.505 52.3579 214.944 52.3579C217.383 52.3579 218.924 54.1123 218.924 56.3207C218.924 58.5291 217.396 60.2708 214.944 60.2708C212.493 60.2708 210.977 58.5038 210.977 56.3207ZM217.635 56.3207C217.635 54.7561 216.561 53.557 214.944 53.557C213.327 53.557 212.266 54.7561 212.266 56.3207C212.266 57.8852 213.34 59.059 214.944 59.059C216.549 59.059 217.635 57.8726 217.635 56.3207Z" fill="black"/>
<path d="M11.257 13.4106L5.98102 16.5342L0.705078 13.4106L6.02042 10.2871L11.257 13.4106Z" fill="#037FE5"/>
<path d="M11.0106 27.3458L5.73468 30.4693L0.45874 27.3458L5.77268 24.2236L11.0106 27.3458Z" fill="#037FE5"/>
<path d="M11.7875 19.9543L6.60865 22.9204L6.50732 17.4732L11.7129 14.3286L11.7875 19.9543Z" fill="#037FE5"/>
<path d="M11.7875 61.034L6.60865 64.0001L6.50732 31.3619L11.7129 28.2173L11.7875 61.034Z" fill="#037FE5"/>
<path d="M5.5025 23.0331L0.499577 20.0712L0.226562 14.4609L5.5025 17.4481V23.0331Z" fill="#037FE5"/>
<path d="M5.27594 64.0001L0.273015 61.0382L0 28.5068L5.27594 31.4926V64.0001Z" fill="#037FE5"/>
<path d="M39.49 25.6321C39.4788 23.702 39.552 21.7565 39.4084 19.8362C39.2733 18.0229 39.0608 16.9756 38.2643 15.3463C37.593 13.973 36.9808 13.1647 35.8128 12.1624C35.2752 11.7013 34.7221 11.3288 34.1226 10.9534C31.3883 9.24267 28.4653 7.73995 25.6831 6.12055C24.8232 5.62011 23.9606 5.11123 23.0965 4.60095L15.0285 0L9.79054 2.93516L9.6273 3.01529L9.83698 3.1404L15.0637 6.12195C17.0226 7.3843 19.0956 8.4639 21.1094 9.63206C23.6031 11.0786 27.8813 13.1506 29.8515 15.0202L30.0964 15.2648C30.3398 15.5164 30.6185 15.8046 30.831 16.0815C31.5599 17.0276 32.0989 18.1873 32.3832 19.3471C32.9982 21.8535 32.7505 25.8204 32.7097 28.4899C32.6562 31.9311 32.4676 34.6175 30.831 37.7143C28.3513 42.4066 23.2625 45.0986 18.5763 47.1833C18.2906 47.3098 17.9697 47.3914 17.677 47.5094H17.5138C25.4481 44.071 31.1363 39.8285 31.4839 30.5296C31.5332 29.2097 31.5642 27.8728 31.5656 26.5303C31.5698 23.9621 31.8611 21.0944 30.9126 18.6934C30.6607 18.0552 30.4017 17.6138 30.0133 17.0613C29.3575 16.1265 28.7651 15.5263 27.8081 14.8572C27.3479 14.5352 26.9173 14.3005 26.4613 14.0193C26.011 13.7424 25.5311 13.488 25.0709 13.2125C24.2856 12.7443 23.4427 12.2959 22.663 11.8362C22.0959 11.5031 21.5105 11.1826 20.9476 10.8564C19.6937 10.1311 18.451 9.372 17.1901 8.65226C16.8087 8.43438 15.172 7.49394 14.9032 7.34634L9.02075 3.83624V8.77737L22.8038 16.0197C22.9811 16.1378 23.1542 16.2657 23.3174 16.4077C24.2223 17.1963 24.9386 18.1901 25.2778 19.3471C25.7155 20.8413 25.593 22.2499 25.6043 23.7554C25.6169 25.4142 25.6071 27.0772 25.6043 28.7345C25.6015 30.2021 25.6184 31.6753 25.6043 33.1429C25.5916 34.3827 25.6817 35.6704 25.5227 36.8976C25.3228 38.4481 24.5094 40.374 23.4807 41.5506C21.9749 43.2726 19.4671 44.5743 17.4898 45.7284C15.9826 46.6084 14.4416 47.4321 12.9218 48.2924V60.4801C17.3984 57.9414 21.8806 55.3703 26.2784 52.8751C28.1473 51.8152 30.1822 50.8256 32.0201 49.5998C38.9989 45.6033 39.3338 39.2972 39.3409 38.2752C39.3901 37.7607 39.3845 37.2139 39.4112 36.7345C39.5407 34.4024 39.4816 32.0549 39.4928 29.7143C39.4985 28.355 39.5013 26.9914 39.4928 25.6321H39.49Z" fill="#037FE5"/>
</g>
<defs>
<clipPath id="clip0_4048_286">
<rect width="219" height="64" fill="white"/>
</clipPath>
</defs>
</svg>
